<svg width="120" height="70" viewBox="0 0 120 70" fill="none" xmlns="http://www.w3.org/2000/svg">
    <path d="M7.20334 0H23.6458C27.6364 0 30.8491 3.21269 30.8491 7.20334V62.7944C30.8491 66.785 27.6364 69.9977 23.6458 69.9977H7.20334C3.21269 69.9977 0 66.785 0 62.7944V7.20334C0 3.21269 3.21269 0 7.20334 0Z"
          fill="white"/>
    <path d="M19.5618 12.8307L19.5846 13.0675C20.0807 13.3606 20.34 13.5974 20.8472 13.9244C22.1777 14.77 23.8128 16.2695 23.6097 21.4221C23.9929 22.5496 24.1622 24.7482 24.5004 25.4472C25.1884 26.834 25.6617 27.736 25.8647 29.0326C25.8647 29.0326 26.0678 31.0621 26.327 31.2086C27.7023 31.5243 27.308 31.6596 27.4995 31.9077C27.7136 32.1783 28.5141 32.167 28.5141 32.9111C28.7961 33.2832 29.0104 33.6553 29.1568 34.0612V7.26098C29.1568 4.19423 26.6763 1.71378 23.6207 1.71378H18.3327C19.1783 2.0182 19.6631 2.37899 19.9451 2.94273C20.6213 2.9991 21.4223 4.5212 20.1704 6.78743C20.7228 7.17078 20.2943 7.73452 19.8997 8.37718C19.7757 8.58013 19.6516 8.9522 19.2796 8.92965C18.7835 9.95565 18.2083 10.9253 17.7689 10.9817C17.645 11.1395 17.5545 11.5792 17.7462 11.7822C18.3893 12.0753 19.167 12.4587 19.5618 12.8307V12.8307Z"
          fill="#C80F2E"/>
    <path d="M24.5001 68.2124L24.4439 68.2236C26.8678 66.7466 25.3683 63.9506 24.9062 62.3045L24.9962 62.0223C25.1202 61.7968 24.8611 61.2671 24.8611 61.2671C24.5568 61.019 24.489 59.6437 24.331 59.0123C24.072 57.9863 24.7933 56.1936 24.7933 55.5847C24.7933 54.9756 24.331 54.1414 23.4968 53.0817C23.2937 52.845 22.6849 47.6473 22.1437 46.3281C21.3883 44.5127 21.1626 44.8057 20.2609 42.63C19.573 41.1078 20.1142 38.8642 18.5585 33.6553L18.9078 33.3283C18.9078 33.3283 17.6676 28.7958 17.2615 27.5556C16.8668 26.3154 16.1342 26.2365 16.1342 26.2365L16.1792 25.5938C16.2357 25.4021 17.69 21.6251 17.814 21.501C17.8251 21.4221 19.9111 19.9902 19.9448 20.2044C20.1137 21.129 20.9257 25.8306 21.2751 26.5747C21.6246 27.3301 22.8313 29.6302 23.3836 31.0621C21.2301 31.592 19.6177 33.5425 19.6177 35.854C19.6177 38.5825 21.8277 40.8035 24.5562 40.8035C26.6417 40.8035 28.446 39.507 29.1674 37.6805L29.1561 62.7446C29.1566 65.5178 27.161 67.8065 24.5001 68.2124V68.2124Z"
          fill="#C80F2E"/>
    <path d="M16.5963 1.71378C14.7924 2.41281 14.5443 3.19077 14.4768 5.69378C14.1724 5.7276 13.5409 5.43446 13.7552 6.95656C13.7552 6.95656 13.868 7.97129 14.2739 7.80217C13.9582 10.012 14.2091 10.5651 12.7407 10.7223C12.425 10.7562 12.0415 10.7787 11.5681 10.8013L11.4215 11.0042C9.4146 11.1959 8.42054 11.0676 7.12566 12.7744C6.62957 13.4283 6.09966 14.3528 5.44572 15.672C5.44572 15.672 4.84815 17.149 4.6676 17.7578C4.09258 18.9642 2.68323 21.6363 2.26607 23.3501C2.13093 23.9364 1.87145 24.1168 2.24352 24.9624C2.79598 26.1801 1.88272 26.4958 5.01712 26.4056V27.1272C5.01712 27.1272 4.18278 27.8488 4.00239 28.2772C3.83326 28.7169 3.34845 30.8704 3.37115 31.8964C3.42737 34.5685 5.60356 36.8008 6.24607 39.4618L7.70052 39.6649C8.48976 41.4801 11.9398 46.3731 12.7405 47.1625C12.7518 47.1738 12.7631 47.1852 12.7743 47.1965C12.9546 47.6586 13.8454 48.2337 14.3639 48.8088C14.6798 49.1132 16.1344 50.6917 18.0735 52.1914C18.7854 52.7418 19.5508 53.2849 20.351 53.7473C20.3284 53.7358 20.8245 54.7282 21.0726 55.5398C20.0804 56.3402 22.0084 57.8062 22.5947 60.2303C22.6285 60.5569 22.0308 60.8842 22.9217 61.6846C22.8653 65.3486 21.7492 67.2658 23.6207 68.2802H7.12566C4.12672 68.2125 1.70248 65.7548 1.70248 62.7443V7.26098C1.70248 4.22806 4.12657 1.78142 7.12566 1.71378H16.5963Z"
          fill="#1D4289"/>
    <path fill-rule="evenodd" clip-rule="evenodd"
          d="M39.1466 1.6814V68.2021H46.3361C46.3549 51.0713 46.7434 33.8714 45.6893 16.941L53.9779 68.2021H64.2938V1.6814H57.1749C57.0298 19.3188 57.6561 36.7098 58.8521 53.9187L50.2393 1.6814H39.1466Z"
          fill="#1D4289"/>
    <path fill-rule="evenodd" clip-rule="evenodd"
          d="M101.471 1.63544L94.4046 68.212H103.197L104.347 54.7497H110.099L111.249 68.212H120L113.139 1.63544H101.471ZM107.223 20.4276L109.441 46.9388H105.004L107.223 20.4276Z"
          fill="#1D4289"/>
    <path d="M69.8364 1.68137V68.1661H82.6957C84.8035 68.1661 91.9807 66.324 91.9807 57.0929V43.8144C91.9807 42.4153 91.9925 38.0292 88.1599 35.4521C90.5547 35.4521 91.9807 30.8061 91.9807 26.5844V12.341C91.9807 6.7913 88.5264 1.66627 81.5864 1.68137H69.8364ZM77.7656 10.1815H81.6686C83.4565 10.1815 84.0514 12.1553 84.0514 13.6734V29.1574C84.0514 31.806 83.1808 32.0061 81.381 32.0061H77.7656V10.1815ZM77.7656 39.2657H81.6686C83.4565 39.2657 84.0514 41.2395 84.0514 42.7576V56.5875C84.0514 58.3895 83.1531 59.7578 81.381 59.7578L77.7656 59.8037V39.2656V39.2657Z"
          fill="#1D4289"/>
</svg>
