<svg width="174" height="174" viewBox="0 0 174 174" fill="none" xmlns="http://www.w3.org/2000/svg">
    <path d="M174 87C174 135.049 135.048 174 86.9995 174C38.9498 174 0 135.049 0 87C0 38.95 38.9498 0 86.9995 0C135.048 0 174 38.95 174 87ZM121.094 28.3581C125.956 27.1603 130.964 26.8234 135.763 26.7484C122.444 15.9562 105.476 9.49098 86.9995 9.49098C68.4989 9.49098 51.513 15.9724 38.1877 26.7883C42.9151 26.8813 47.8276 27.2144 52.574 28.2812C59.8147 29.9089 65.6829 33.8619 70.5612 38.5011C73.7627 41.5508 76.4468 45.1089 79.6507 48.1563C82.5568 50.9229 84.9334 52.2621 87.0812 52.356C88.8246 52.432 91.0465 51.3424 94.0484 48.4904C97.0367 45.6508 99.5219 42.3376 102.46 39.4512C107.528 34.4665 113.503 30.2269 121.094 28.3581ZM9.63329 82.2545H164.366C163.306 64.7114 156.411 48.7428 145.597 36.2641C137.482 36.2745 130.394 35.8759 123.525 37.534C117.919 38.9112 113.183 42.2171 109.114 46.2192L109.112 46.2201C106.148 49.157 103.615 52.4927 100.586 55.3713C97.2867 58.5052 92.5508 62.0938 86.6683 61.8385C80.9472 61.5889 76.4181 58.1825 73.1067 55.0315C70.1022 52.1703 67.5752 48.8643 64.6209 45.9591C60.3841 41.7935 55.8465 38.7763 50.617 37.5691L50.4936 37.5406C43.6184 35.9964 36.3654 36.2764 28.4016 36.2641C17.5877 48.7428 10.6925 64.7114 9.63329 82.2545ZM123.362 136.426C130.282 138.131 137.417 137.725 145.597 137.736C156.411 125.257 163.307 109.289 164.366 91.7455H9.63329C10.6925 109.289 17.5867 125.257 28.4016 137.736C36.3654 137.724 43.6184 138.004 50.4936 136.459C55.6928 135.29 60.2076 132.334 64.4206 128.237L64.6209 128.041C67.5752 125.136 70.1022 121.83 73.1067 118.968C76.4181 115.817 80.9462 112.411 86.6674 112.162C92.5498 111.906 97.2867 115.495 100.586 118.629C103.615 121.507 106.137 124.856 109.112 127.78L109.114 127.781C113.455 132.05 117.984 135.102 123.362 136.426ZM52.575 145.719C47.8594 146.782 43.0098 147.117 38.1877 147.212C51.513 158.028 68.4989 164.509 86.9995 164.509C105.476 164.509 122.444 158.044 135.763 147.252C130.964 147.177 125.956 146.84 121.094 145.642C113.503 143.773 107.528 139.534 102.46 134.549C99.5219 131.662 97.0367 128.349 94.0484 125.51C91.0465 122.658 88.8246 121.568 87.0812 121.644C84.9334 121.738 82.5568 123.077 79.6507 125.844C76.6834 128.666 74.192 131.939 71.275 134.809C66.2571 139.743 60.1725 144.01 52.575 145.719Z"
          fill="white"/>
</svg>
